<svg width="981px" height="264px" version="1.1" xmlns="http://www.w3.org/2000/svg" xmlns:xlink="http://www.w3.org/1999/xlink" overflow="visible" id="g1v7siyw">
   <desc>Engraved by Verovio 5.2.0[undefined]</desc>
   <defs>
      <symbol id="E084-g1v7siyw" viewBox="0 0 1000 1000" overflow="visible">
         <path transform="scale(1,-1)" d="M20 -78c84 97 114 180 134 329h170c-13 -32 -82 -132 -99 -151l-84 -97c-33 -36 -59 -63 -80 -81h162v102l127 123v-225h57v-39h-57v-34c0 -43 19 -65 57 -65v-34h-244v36c48 0 60 26 60 70v27h-203v39z" />
      </symbol>
      <symbol id="E0A2-g1v7siyw" viewBox="0 0 1000 1000" overflow="visible">
         <path transform="scale(1,-1)" d="M198 133c102 0 207 -45 207 -133c0 -92 -118 -133 -227 -133c-101 0 -178 46 -178 133c0 88 93 133 198 133zM293 -21c0 14 -3 29 -8 44c-7 20 -18 38 -33 54c-20 21 -43 31 -68 31l-20 -2c-15 -5 -27 -14 -36 -28c-4 -9 -6 -17 -8 -24s-3 -16 -3 -27c0 -15 3 -34 9 -57 s18 -41 34 -55c15 -15 36 -23 62 -23c4 0 10 1 18 2c19 5 32 15 40 30s13 34 13 55z" />
      </symbol>
      <symbol id="E05C-g1v7siyw" viewBox="0 0 1000 1000" overflow="visible">
         <path transform="scale(1,-1)" d="M175 502h43v-456c10 5 18 12 37 29c16 19 22 27 27 38s8 24 14 49c3 22 5 43 5 62c7 -34 31 -54 73 -60c73 18 99 61 100 165c0 46 -10 78 -31 100c-18 23 -41 35 -69 35c-40 0 -65 -32 -66 -84c6 12 11 16 39 24c5 0 2 1 16 -4l17 -10l10 -14l7 -18 c-4 -32 -23 -48 -56 -48c-51 0 -77 33 -77 98c10 35 16 47 30 61c9 9 15 14 23 17c3 3 22 9 27 11l34 3l35 2c123 0 192 -64 192 -178l1 -33c0 -52 -20 -97 -60 -134c-18 -15 -42 -28 -74 -39c-30 -9 -63 -13 -101 -13l-93 -88v-34l93 -88c38 0 71 -4 101 -13 c32 -11 56 -24 74 -39c40 -37 60 -82 60 -134l-3 -33c0 -115 -68 -178 -190 -178l-35 2l-34 3c-5 2 -24 8 -27 11c-26 11 -40 32 -53 78c0 65 26 98 77 98c33 0 52 -16 56 -48l-7 -18l-10 -14l-17 -10c-14 -5 -11 -4 -16 -4c-28 8 -33 12 -39 24c1 -52 26 -84 66 -84 c28 0 51 12 69 35c21 22 31 54 31 100c-1 104 -27 147 -100 165c-42 -6 -66 -26 -73 -60c0 19 -2 40 -5 62c-6 25 -9 38 -14 49s-11 19 -27 38c-19 17 -27 24 -37 29v-456h-43v1004zM0 502h118v-1004h-118v1004z" />
      </symbol>
      <symbol id="E050-g1v7siyw" viewBox="0 0 1000 1000" overflow="visible">
         <path transform="scale(1,-1)" d="M441 -245c-23 -4 -48 -6 -76 -6c-59 0 -102 7 -130 20c-88 42 -150 93 -187 154c-26 44 -43 103 -48 176c0 6 -1 13 -1 19c0 54 15 111 45 170c29 57 65 106 110 148s96 85 153 127c-3 16 -8 46 -13 92c-4 43 -5 73 -5 89c0 117 16 172 69 257c34 54 64 82 89 82 c21 0 43 -30 69 -92s39 -115 41 -159v-15c0 -109 -21 -162 -67 -241c-13 -20 -63 -90 -98 -118c-13 -9 -25 -19 -37 -29l31 -181c8 1 18 2 28 2c58 0 102 -12 133 -35c59 -43 92 -104 98 -184c1 -7 1 -15 1 -22c0 -123 -87 -209 -181 -248c8 -57 17 -110 25 -162 c5 -31 6 -58 6 -80c0 -30 -5 -53 -14 -70c-35 -64 -88 -99 -158 -103c-5 0 -11 -1 -16 -1c-37 0 -72 10 -108 27c-50 24 -77 59 -80 105v11c0 29 7 55 20 76c18 28 45 42 79 44h6c49 0 93 -42 97 -87v-9c0 -51 -34 -86 -105 -106c17 -24 51 -36 102 -36c62 0 116 43 140 85 c9 16 13 41 13 74c0 20 -1 42 -5 67c-8 53 -18 106 -26 159zM461 939c-95 0 -135 -175 -135 -286c0 -24 2 -48 5 -71c50 39 92 82 127 128c40 53 60 100 60 140v8c-4 53 -22 81 -55 81h-2zM406 119l54 -326c73 25 110 78 110 161c0 7 0 15 -1 23c-7 95 -57 142 -151 142h-12 zM382 117c-72 -2 -128 -47 -128 -120v-7c2 -46 43 -99 75 -115c-3 -2 -7 -5 -10 -10c-70 33 -116 88 -123 172v11c0 68 44 126 88 159c23 17 49 29 78 36l-29 170c-21 -13 -52 -37 -92 -73c-50 -44 -86 -84 -109 -119c-45 -69 -67 -130 -67 -182v-13c5 -68 35 -127 93 -176 s125 -73 203 -73c25 0 50 3 75 9c-19 111 -36 221 -54 331z" />
      </symbol>
   </defs>
   <style type="text/css">#g1v7siyw g.page-margin {font-family:Times,serif;}#g1v7siyw g.ending, #g1v7siyw g.fing, #g1v7siyw g.reh, #g1v7siyw g.tempo {font-weight:bold;}#g1v7siyw g.dir, #g1v7siyw g.dynam, #g1v7siyw g.mNum {font-style:italic;}#g1v7siyw g.label {font-weight:normal;}#g1v7siyw path {stroke:currentColor}</style>
   <svg class="definition-scale" color="black" viewBox="0 0 16350 4400">
      <g class="page-margin" transform="translate(400, 400)">
         <g data-id="h6h3j56" data-class="mdiv" class="mdiv pageMilestone" />
         <g data-id="u1exg0yx" data-class="score" class="score pageMilestone" />
         <g data-id="tw1v3or" data-class="system" class="system">
            <path d="M13 540 L13 3060" stroke-width="27" />
            <g data-id="ef2iqx4" data-class="section" class="section systemMilestone" />
            <g data-id="a12x1ve" data-class="pb" class="pb" />
            <g data-id="g1ixnlos" data-class="measure" class="measure">
               <g data-id="u1j4wvz1" data-class="staff" class="staff">
                  <path d="M0 540 L2913 540" stroke-width="13" />
                  <path d="M0 720 L2913 720" stroke-width="13" />
                  <path d="M0 900 L2913 900" stroke-width="13" />
                  <path d="M0 1080 L2913 1080" stroke-width="13" />
                  <path d="M0 1260 L2913 1260" stroke-width="13" />
                  <g data-id="eho15cb" data-class="clef" class="clef">
                     <use xlink:href="#E050-g1v7siyw" x="117" y="1080" height="720px" width="720px" />
                  </g>
                  <g data-id="n1nqk9tw" data-class="keySig" class="keySig" />
                  <g data-id="p163auws" data-class="meterSig" class="meterSig">
                     <use xlink:href="#E084-g1v7siyw" x="748" y="720" height="720px" width="720px" />
                     <use xlink:href="#E084-g1v7siyw" x="748" y="1080" height="720px" width="720px" />
                  </g>
                  <g data-id="x3yyo67" data-class="layer" class="layer">
                     <g data-id="Violin_n0" data-class="note" class="note">
                        <g data-class="notehead" class="notehead">
                           <use xlink:href="#E0A2-g1v7siyw" x="1310" y="1080" height="720px" width="720px" />
                        </g>
                     </g>
                  </g>
               </g>
               <g data-id="nqhrvg9" data-class="staff" class="staff">
                  <path d="M0 2340 L2913 2340" stroke-width="13" />
                  <path d="M0 2520 L2913 2520" stroke-width="13" />
                  <path d="M0 2700 L2913 2700" stroke-width="13" />
                  <path d="M0 2880 L2913 2880" stroke-width="13" />
                  <path d="M0 3060 L2913 3060" stroke-width="13" />
                  <g data-id="ezxrwnr" data-class="clef" class="clef">
                     <use xlink:href="#E05C-g1v7siyw" x="117" y="2700" height="720px" width="720px" />
                  </g>
                  <g data-id="v1fa53iz" data-class="keySig" class="keySig" />
                  <g data-id="q7yip25" data-class="meterSig" class="meterSig">
                     <use xlink:href="#E084-g1v7siyw" x="748" y="2520" height="720px" width="720px" />
                     <use xlink:href="#E084-g1v7siyw" x="748" y="2880" height="720px" width="720px" />
                  </g>
                  <g data-id="pjawgc3" data-class="layer" class="layer">
                     <g data-id="Viola_n0" data-class="note" class="note">
                        <g data-class="notehead" class="notehead">
                           <use xlink:href="#E0A2-g1v7siyw" x="1310" y="2700" height="720px" width="720px" />
                        </g>
                     </g>
                  </g>
               </g>
               <g data-id="djpkc0r" data-class="barLine" class="barLine">
                  <path d="M2900 540 L2900 1260" stroke-width="27" />
                  <path d="M2900 2340 L2900 3060" stroke-width="27" />
               </g>
            </g>
            <g data-id="f11siwgk" data-class="measure" class="measure">
               <g data-id="k1vewq24" data-class="staff" class="staff">
                  <path d="M2913 540 L4696 540" stroke-width="13" />
                  <path d="M2913 720 L4696 720" stroke-width="13" />
                  <path d="M2913 900 L4696 900" stroke-width="13" />
                  <path d="M2913 1080 L4696 1080" stroke-width="13" />
                  <path d="M2913 1260 L4696 1260" stroke-width="13" />
                  <g data-id="jd6rdmr" data-class="layer" class="layer">
                     <g data-id="Violin_n1" data-class="note" class="note">
                        <g data-class="notehead" class="notehead">
                           <use xlink:href="#E0A2-g1v7siyw" x="3093" y="1170" height="720px" width="720px" />
                        </g>
                     </g>
                  </g>
               </g>
               <g data-id="y12n6d9j" data-class="staff" class="staff">
                  <path d="M2913 2340 L4696 2340" stroke-width="13" />
                  <path d="M2913 2520 L4696 2520" stroke-width="13" />
                  <path d="M2913 2700 L4696 2700" stroke-width="13" />
                  <path d="M2913 2880 L4696 2880" stroke-width="13" />
                  <path d="M2913 3060 L4696 3060" stroke-width="13" />
                  <g data-id="ez8k4x8" data-class="layer" class="layer">
                     <g data-id="Viola_n1" data-class="note" class="note">
                        <g data-class="notehead" class="notehead">
                           <use xlink:href="#E0A2-g1v7siyw" x="3093" y="2610" height="720px" width="720px" />
                        </g>
                     </g>
                  </g>
               </g>
               <g data-id="t55e7au" data-class="barLine" class="barLine">
                  <path d="M4683 540 L4683 1260" stroke-width="27" />
                  <path d="M4683 2340 L4683 3060" stroke-width="27" />
               </g>
            </g>
            <g data-id="r1x0m5l6" data-class="measure" class="measure">
               <g data-id="r17ut28g" data-class="staff" class="staff">
                  <path d="M4696 540 L6479 540" stroke-width="13" />
                  <path d="M4696 720 L6479 720" stroke-width="13" />
                  <path d="M4696 900 L6479 900" stroke-width="13" />
                  <path d="M4696 1080 L6479 1080" stroke-width="13" />
                  <path d="M4696 1260 L6479 1260" stroke-width="13" />
                  <g data-id="v18dfwmf" data-class="layer" class="layer">
                     <g data-id="Violin_n2" data-class="note" class="note">
                        <g data-class="notehead" class="notehead">
                           <use xlink:href="#E0A2-g1v7siyw" x="4876" y="810" height="720px" width="720px" />
                        </g>
                     </g>
                  </g>
               </g>
               <g data-id="u1mtj5hb" data-class="staff" class="staff">
                  <path d="M4696 2340 L6479 2340" stroke-width="13" />
                  <path d="M4696 2520 L6479 2520" stroke-width="13" />
                  <path d="M4696 2700 L6479 2700" stroke-width="13" />
                  <path d="M4696 2880 L6479 2880" stroke-width="13" />
                  <path d="M4696 3060 L6479 3060" stroke-width="13" />
                  <g data-id="j1jti38e" data-class="layer" class="layer">
                     <g data-id="Viola_n2" data-class="note" class="note">
                        <g data-class="notehead" class="notehead">
                           <use xlink:href="#E0A2-g1v7siyw" x="4876" y="2520" height="720px" width="720px" />
                        </g>
                     </g>
                  </g>
               </g>
               <g data-id="n1uqv9yb" data-class="barLine" class="barLine">
                  <path d="M6466 540 L6466 1260" stroke-width="27" />
                  <path d="M6466 2340 L6466 3060" stroke-width="27" />
               </g>
            </g>
            <g data-id="s13n7cxm" data-class="measure" class="measure">
               <g data-id="c1enftxs" data-class="staff" class="staff">
                  <path d="M6479 540 L8262 540" stroke-width="13" />
                  <path d="M6479 720 L8262 720" stroke-width="13" />
                  <path d="M6479 900 L8262 900" stroke-width="13" />
                  <path d="M6479 1080 L8262 1080" stroke-width="13" />
                  <path d="M6479 1260 L8262 1260" stroke-width="13" />
                  <g data-id="q3mmohk" data-class="layer" class="layer">
                     <g data-id="Violin_n3" data-class="note" class="note">
                        <g data-class="notehead" class="notehead">
                           <use xlink:href="#E0A2-g1v7siyw" x="6659" y="900" height="720px" width="720px" />
                        </g>
                     </g>
                  </g>
               </g>
               <g data-id="wcxkmsw" data-class="staff" class="staff">
                  <path d="M6479 2340 L8262 2340" stroke-width="13" />
                  <path d="M6479 2520 L8262 2520" stroke-width="13" />
                  <path d="M6479 2700 L8262 2700" stroke-width="13" />
                  <path d="M6479 2880 L8262 2880" stroke-width="13" />
                  <path d="M6479 3060 L8262 3060" stroke-width="13" />
                  <g data-id="h1t8oapx" data-class="layer" class="layer">
                     <g data-id="Viola_n3" data-class="note" class="note">
                        <g data-class="notehead" class="notehead">
                           <use xlink:href="#E0A2-g1v7siyw" x="6659" y="2340" height="720px" width="720px" />
                        </g>
                     </g>
                  </g>
               </g>
               <g data-id="yqguxg0" data-class="barLine" class="barLine">
                  <path d="M8249 540 L8249 1260" stroke-width="27" />
                  <path d="M8249 2340 L8249 3060" stroke-width="27" />
               </g>
            </g>
            <g data-id="e120v29p" data-class="measure" class="measure">
               <g data-id="n10wpmg5" data-class="staff" class="staff">
                  <path d="M8262 540 L10045 540" stroke-width="13" />
                  <path d="M8262 720 L10045 720" stroke-width="13" />
                  <path d="M8262 900 L10045 900" stroke-width="13" />
                  <path d="M8262 1080 L10045 1080" stroke-width="13" />
                  <path d="M8262 1260 L10045 1260" stroke-width="13" />
                  <g data-id="i1a3ppzj" data-class="layer" class="layer">
                     <g data-id="Violin_n4" data-class="note" class="note">
                        <g data-class="notehead" class="notehead">
                           <use xlink:href="#E0A2-g1v7siyw" x="8442" y="720" height="720px" width="720px" />
                        </g>
                     </g>
                  </g>
               </g>
               <g data-id="f1mns42p" data-class="staff" class="staff">
                  <path d="M8262 2340 L10045 2340" stroke-width="13" />
                  <path d="M8262 2520 L10045 2520" stroke-width="13" />
                  <path d="M8262 2700 L10045 2700" stroke-width="13" />
                  <path d="M8262 2880 L10045 2880" stroke-width="13" />
                  <path d="M8262 3060 L10045 3060" stroke-width="13" />
                  <g data-id="z6dthyi" data-class="layer" class="layer">
                     <g data-id="Viola_n4" data-class="note" class="note">
                        <g data-class="notehead" class="notehead">
                           <use xlink:href="#E0A2-g1v7siyw" x="8442" y="2430" height="720px" width="720px" />
                        </g>
                     </g>
                  </g>
               </g>
               <g data-id="z8zlvwt" data-class="barLine" class="barLine">
                  <path d="M10032 540 L10032 1260" stroke-width="27" />
                  <path d="M10032 2340 L10032 3060" stroke-width="27" />
               </g>
            </g>
            <g data-id="k1o6k91l" data-class="measure" class="measure">
               <g data-id="n1z93vi" data-class="staff" class="staff">
                  <path d="M10045 540 L11828 540" stroke-width="13" />
                  <path d="M10045 720 L11828 720" stroke-width="13" />
                  <path d="M10045 900 L11828 900" stroke-width="13" />
                  <path d="M10045 1080 L11828 1080" stroke-width="13" />
                  <path d="M10045 1260 L11828 1260" stroke-width="13" />
                  <g data-id="zeiac1b" data-class="layer" class="layer">
                     <g data-id="Violin_n5" data-class="note" class="note">
                        <g data-class="notehead" class="notehead">
                           <use xlink:href="#E0A2-g1v7siyw" x="10225" y="810" height="720px" width="720px" />
                        </g>
                     </g>
                  </g>
               </g>
               <g data-id="j190lt82" data-class="staff" class="staff">
                  <path d="M10045 2340 L11828 2340" stroke-width="13" />
                  <path d="M10045 2520 L11828 2520" stroke-width="13" />
                  <path d="M10045 2700 L11828 2700" stroke-width="13" />
                  <path d="M10045 2880 L11828 2880" stroke-width="13" />
                  <path d="M10045 3060 L11828 3060" stroke-width="13" />
                  <g data-id="y13zc6jw" data-class="layer" class="layer">
                     <g data-id="Viola_n5" data-class="note" class="note">
                        <g data-class="notehead" class="notehead">
                           <use xlink:href="#E0A2-g1v7siyw" x="10225" y="2520" height="720px" width="720px" />
                        </g>
                     </g>
                  </g>
               </g>
               <g data-id="e1lfegbh" data-class="barLine" class="barLine">
                  <path d="M11815 540 L11815 1260" stroke-width="27" />
                  <path d="M11815 2340 L11815 3060" stroke-width="27" />
               </g>
            </g>
            <g data-id="y1pub4u3" data-class="measure" class="measure">
               <g data-id="yeml7jm" data-class="staff" class="staff">
                  <path d="M11828 540 L13611 540" stroke-width="13" />
                  <path d="M11828 720 L13611 720" stroke-width="13" />
                  <path d="M11828 900 L13611 900" stroke-width="13" />
                  <path d="M11828 1080 L13611 1080" stroke-width="13" />
                  <path d="M11828 1260 L13611 1260" stroke-width="13" />
                  <g data-id="p2f6x94" data-class="layer" class="layer">
                     <g data-id="Violin_n6" data-class="note" class="note">
                        <g data-class="notehead" class="notehead">
                           <use xlink:href="#E0A2-g1v7siyw" x="12008" y="900" height="720px" width="720px" />
                        </g>
                     </g>
                  </g>
               </g>
               <g data-id="uvwz3y1" data-class="staff" class="staff">
                  <path d="M11828 2340 L13611 2340" stroke-width="13" />
                  <path d="M11828 2520 L13611 2520" stroke-width="13" />
                  <path d="M11828 2700 L13611 2700" stroke-width="13" />
                  <path d="M11828 2880 L13611 2880" stroke-width="13" />
                  <path d="M11828 3060 L13611 3060" stroke-width="13" />
                  <g data-id="f1wc8tsk" data-class="layer" class="layer">
                     <g data-id="Viola_n6" data-class="note" class="note">
                        <g data-class="notehead" class="notehead">
                           <use xlink:href="#E0A2-g1v7siyw" x="12008" y="2610" height="720px" width="720px" />
                        </g>
                     </g>
                  </g>
               </g>
               <g data-id="gg0ahnm" data-class="barLine" class="barLine">
                  <path d="M13598 540 L13598 1260" stroke-width="27" />
                  <path d="M13598 2340 L13598 3060" stroke-width="27" />
               </g>
            </g>
            <g data-id="ft62oue" data-class="measure" class="measure">
               <g data-id="z1ansxti" data-class="staff" class="staff">
                  <path d="M13611 540 L15556 540" stroke-width="13" />
                  <path d="M13611 720 L15556 720" stroke-width="13" />
                  <path d="M13611 900 L15556 900" stroke-width="13" />
                  <path d="M13611 1080 L15556 1080" stroke-width="13" />
                  <path d="M13611 1260 L15556 1260" stroke-width="13" />
                  <g data-id="b1ytssox" data-class="layer" class="layer">
                     <g data-id="Violin_n7" data-class="note" class="note">
                        <g data-class="notehead" class="notehead">
                           <use xlink:href="#E0A2-g1v7siyw" x="13791" y="810" height="720px" width="720px" />
                        </g>
                     </g>
                  </g>
               </g>
               <g data-id="mjs331e" data-class="staff" class="staff">
                  <path d="M13611 2340 L15556 2340" stroke-width="13" />
                  <path d="M13611 2520 L15556 2520" stroke-width="13" />
                  <path d="M13611 2700 L15556 2700" stroke-width="13" />
                  <path d="M13611 2880 L15556 2880" stroke-width="13" />
                  <path d="M13611 3060 L15556 3060" stroke-width="13" />
                  <g data-id="g9airuo" data-class="layer" class="layer">
                     <g data-id="Viola_n7" data-class="note" class="note">
                        <g data-class="notehead" class="notehead">
                           <use xlink:href="#E0A2-g1v7siyw" x="13791" y="2700" height="720px" width="720px" />
                        </g>
                     </g>
                  </g>
               </g>
               <g data-id="xrla75v" data-class="barLine" class="barLine">
                  <path d="M15381 540 L15381 1260" stroke-width="27" />
                  <path d="M15511 540 L15511 1260" stroke-width="90" />
                  <path d="M15381 2340 L15381 3060" stroke-width="27" />
                  <path d="M15511 2340 L15511 3060" stroke-width="90" />
               </g>
            </g>
            <g data-id="hl8vdy8" data-class="systemMilestoneEnd" class="systemMilestoneEnd ef2iqx4" />
         </g>
         <g data-id="nrup9f7" data-class="pageMilestoneEnd" class="pageMilestoneEnd u1exg0yx" />
         <g data-id="k1322a7p" data-class="pageMilestoneEnd" class="pageMilestoneEnd h6h3j56" />
      </g>
   </svg>
</svg>
