<svg width="400px" height="343px" version="1.1" xmlns="http://www.w3.org/2000/svg" xmlns:xlink="http://www.w3.org/1999/xlink" overflow="visible" id="dxa3bil">
   <desc>Engraved by Verovio 5.1.0[undefined]</desc>
   <defs>
      <symbol id="E050-dxa3bil" viewBox="0 0 1000 1000" overflow="visible">
         <path transform="scale(1,-1)" d="M441 -245c-23 -4 -48 -6 -76 -6c-59 0 -102 7 -130 20c-88 42 -150 93 -187 154c-26 44 -43 103 -48 176c0 6 -1 13 -1 19c0 54 15 111 45 170c29 57 65 106 110 148s96 85 153 127c-3 16 -8 46 -13 92c-4 43 -5 73 -5 89c0 117 16 172 69 257c34 54 64 82 89 82 c21 0 43 -30 69 -92s39 -115 41 -159v-15c0 -109 -21 -162 -67 -241c-13 -20 -63 -90 -98 -118c-13 -9 -25 -19 -37 -29l31 -181c8 1 18 2 28 2c58 0 102 -12 133 -35c59 -43 92 -104 98 -184c1 -7 1 -15 1 -22c0 -123 -87 -209 -181 -248c8 -57 17 -110 25 -162 c5 -31 6 -58 6 -80c0 -30 -5 -53 -14 -70c-35 -64 -88 -99 -158 -103c-5 0 -11 -1 -16 -1c-37 0 -72 10 -108 27c-50 24 -77 59 -80 105v11c0 29 7 55 20 76c18 28 45 42 79 44h6c49 0 93 -42 97 -87v-9c0 -51 -34 -86 -105 -106c17 -24 51 -36 102 -36c62 0 116 43 140 85 c9 16 13 41 13 74c0 20 -1 42 -5 67c-8 53 -18 106 -26 159zM461 939c-95 0 -135 -175 -135 -286c0 -24 2 -48 5 -71c50 39 92 82 127 128c40 53 60 100 60 140v8c-4 53 -22 81 -55 81h-2zM406 119l54 -326c73 25 110 78 110 161c0 7 0 15 -1 23c-7 95 -57 142 -151 142h-12 zM382 117c-72 -2 -128 -47 -128 -120v-7c2 -46 43 -99 75 -115c-3 -2 -7 -5 -10 -10c-70 33 -116 88 -123 172v11c0 68 44 126 88 159c23 17 49 29 78 36l-29 170c-21 -13 -52 -37 -92 -73c-50 -44 -86 -84 -109 -119c-45 -69 -67 -130 -67 -182v-13c5 -68 35 -127 93 -176 s125 -73 203 -73c25 0 50 3 75 9c-19 111 -36 221 -54 331z" />
      </symbol>
      <symbol id="E084-dxa3bil" viewBox="0 0 1000 1000" overflow="visible">
         <path transform="scale(1,-1)" d="M20 -78c84 97 114 180 134 329h170c-13 -32 -82 -132 -99 -151l-84 -97c-33 -36 -59 -63 -80 -81h162v102l127 123v-225h57v-39h-57v-34c0 -43 19 -65 57 -65v-34h-244v36c48 0 60 26 60 70v27h-203v39z" />
      </symbol>
      <symbol id="E0A2-dxa3bil" viewBox="0 0 1000 1000" overflow="visible">
         <path transform="scale(1,-1)" d="M198 133c102 0 207 -45 207 -133c0 -92 -118 -133 -227 -133c-101 0 -178 46 -178 133c0 88 93 133 198 133zM293 -21c0 14 -3 29 -8 44c-7 20 -18 38 -33 54c-20 21 -43 31 -68 31l-20 -2c-15 -5 -27 -14 -36 -28c-4 -9 -6 -17 -8 -24s-3 -16 -3 -27c0 -15 3 -34 9 -57 s18 -41 34 -55c15 -15 36 -23 62 -23c4 0 10 1 18 2c19 5 32 15 40 30s13 34 13 55z" />
      </symbol>
      <symbol id="E05C-dxa3bil" viewBox="0 0 1000 1000" overflow="visible">
         <path transform="scale(1,-1)" d="M175 502h43v-456c10 5 18 12 37 29c16 19 22 27 27 38s8 24 14 49c3 22 5 43 5 62c7 -34 31 -54 73 -60c73 18 99 61 100 165c0 46 -10 78 -31 100c-18 23 -41 35 -69 35c-40 0 -65 -32 -66 -84c6 12 11 16 39 24c5 0 2 1 16 -4l17 -10l10 -14l7 -18 c-4 -32 -23 -48 -56 -48c-51 0 -77 33 -77 98c10 35 16 47 30 61c9 9 15 14 23 17c3 3 22 9 27 11l34 3l35 2c123 0 192 -64 192 -178l1 -33c0 -52 -20 -97 -60 -134c-18 -15 -42 -28 -74 -39c-30 -9 -63 -13 -101 -13l-93 -88v-34l93 -88c38 0 71 -4 101 -13 c32 -11 56 -24 74 -39c40 -37 60 -82 60 -134l-3 -33c0 -115 -68 -178 -190 -178l-35 2l-34 3c-5 2 -24 8 -27 11c-26 11 -40 32 -53 78c0 65 26 98 77 98c33 0 52 -16 56 -48l-7 -18l-10 -14l-17 -10c-14 -5 -11 -4 -16 -4c-28 8 -33 12 -39 24c1 -52 26 -84 66 -84 c28 0 51 12 69 35c21 22 31 54 31 100c-1 104 -27 147 -100 165c-42 -6 -66 -26 -73 -60c0 19 -2 40 -5 62c-6 25 -9 38 -14 49s-11 19 -27 38c-19 17 -27 24 -37 29v-456h-43v1004zM0 502h118v-1004h-118v1004z" />
      </symbol>
   </defs>
   <style type="text/css">#dxa3bil g.page-margin {font-family:Times,serif;} #dxa3bil g.ending, #dxa3bil g.fing, #dxa3bil g.reh, #dxa3bil g.tempo {font-weight:bold;} #dxa3bil g.dir, #dxa3bil g.dynam, #dxa3bil g.mNum {font-style:italic;} #dxa3bil g.label {font-weight:normal;} #dxa3bil path {stroke:currentColor}</style>
   <svg class="definition-scale" color="black" viewBox="0 0 10000 8560">
      <g class="page-margin" transform="translate(500, 500)">
         <g id="m15zp8c1" class="mdiv pageMilestone" />
         <g id="s1m7by78" class="score pageMilestone" />
         <g id="svqw5zw" class="system">
            <path d="M13 540 L13 3060" stroke-width="27" />
            <g id="s19i0k3v" class="section systemMilestone" />
            <g id="p1jshs9j" class="pb" />
            <g id="m1s4zz9" class="measure">
               <g id="st7d7mq" class="staff">
                  <path d="M0 540 L3098 540" stroke-width="13" />
                  <path d="M0 720 L3098 720" stroke-width="13" />
                  <path d="M0 900 L3098 900" stroke-width="13" />
                  <path d="M0 1080 L3098 1080" stroke-width="13" />
                  <path d="M0 1260 L3098 1260" stroke-width="13" />
                  <g id="cd2k5im" class="clef">
                     <use xlink:href="#E050-dxa3bil" x="117" y="1080" height="720px" width="720px" />
                  </g>
                  <g id="klvmqo8" class="keySig" />
                  <g id="m14r8iix" class="meterSig">
                     <use xlink:href="#E084-dxa3bil" x="748" y="720" height="720px" width="720px" />
                     <use xlink:href="#E084-dxa3bil" x="748" y="1080" height="720px" width="720px" />
                  </g>
                  <g id="l1m3wb2w" class="layer">
                     <g id="n1oblucl" class="note">
                        <g class="notehead">
                           <use xlink:href="#E0A2-dxa3bil" x="1321" y="1080" height="720px" width="720px" />
                        </g>
                     </g>
                  </g>
               </g>
               <g id="syj2sj5" class="staff">
                  <path d="M0 2340 L3098 2340" stroke-width="13" />
                  <path d="M0 2520 L3098 2520" stroke-width="13" />
                  <path d="M0 2700 L3098 2700" stroke-width="13" />
                  <path d="M0 2880 L3098 2880" stroke-width="13" />
                  <path d="M0 3060 L3098 3060" stroke-width="13" />
                  <g id="c6fcd8k" class="clef">
                     <use xlink:href="#E05C-dxa3bil" x="117" y="2700" height="720px" width="720px" />
                  </g>
                  <g id="k1khvijp" class="keySig" />
                  <g id="m11iaqg9" class="meterSig">
                     <use xlink:href="#E084-dxa3bil" x="748" y="2520" height="720px" width="720px" />
                     <use xlink:href="#E084-dxa3bil" x="748" y="2880" height="720px" width="720px" />
                  </g>
                  <g id="la9k4nc" class="layer">
                     <g id="n49ft7w" class="note">
                        <g class="notehead">
                           <use xlink:href="#E0A2-dxa3bil" x="1321" y="2700" height="720px" width="720px" />
                        </g>
                     </g>
                  </g>
               </g>
               <g id="b7y2wy4" class="barLine">
                  <path d="M3085 540 L3085 1260" stroke-width="27" />
                  <path d="M3085 2340 L3085 3060" stroke-width="27" />
               </g>
            </g>
            <g id="m1jh3rb" class="measure">
               <g id="snjhge8" class="staff">
                  <path d="M3098 540 L5066 540" stroke-width="13" />
                  <path d="M3098 720 L5066 720" stroke-width="13" />
                  <path d="M3098 900 L5066 900" stroke-width="13" />
                  <path d="M3098 1080 L5066 1080" stroke-width="13" />
                  <path d="M3098 1260 L5066 1260" stroke-width="13" />
                  <g id="lv6tok4" class="layer">
                     <g id="ne47p9n" class="note">
                        <g class="notehead">
                           <use xlink:href="#E0A2-dxa3bil" x="3289" y="1170" height="720px" width="720px" />
                        </g>
                     </g>
                  </g>
               </g>
               <g id="s1gej60i" class="staff">
                  <path d="M3098 2340 L5066 2340" stroke-width="13" />
                  <path d="M3098 2520 L5066 2520" stroke-width="13" />
                  <path d="M3098 2700 L5066 2700" stroke-width="13" />
                  <path d="M3098 2880 L5066 2880" stroke-width="13" />
                  <path d="M3098 3060 L5066 3060" stroke-width="13" />
                  <g id="lbz4oqp" class="layer">
                     <g id="n1bll6n1" class="note">
                        <g class="notehead">
                           <use xlink:href="#E0A2-dxa3bil" x="3289" y="2610" height="720px" width="720px" />
                        </g>
                     </g>
                  </g>
               </g>
               <g id="b1tn8xu8" class="barLine">
                  <path d="M5053 540 L5053 1260" stroke-width="27" />
                  <path d="M5053 2340 L5053 3060" stroke-width="27" />
               </g>
            </g>
            <g id="m44obsr" class="measure">
               <g id="s13bmeas" class="staff">
                  <path d="M5066 540 L7034 540" stroke-width="13" />
                  <path d="M5066 720 L7034 720" stroke-width="13" />
                  <path d="M5066 900 L7034 900" stroke-width="13" />
                  <path d="M5066 1080 L7034 1080" stroke-width="13" />
                  <path d="M5066 1260 L7034 1260" stroke-width="13" />
                  <g class="ledgerLines below">
                     <path d="M5209 1440 L5595 1440" stroke-width="22" />
                  </g>
                  <g id="l1hn9paf" class="layer">
                     <g id="n7vomj1" class="note">
                        <g class="notehead">
                           <use xlink:href="#E0A2-dxa3bil" x="5257" y="1440" height="720px" width="720px" />
                        </g>
                     </g>
                  </g>
               </g>
               <g id="s5ko564" class="staff">
                  <path d="M5066 2340 L7034 2340" stroke-width="13" />
                  <path d="M5066 2520 L7034 2520" stroke-width="13" />
                  <path d="M5066 2700 L7034 2700" stroke-width="13" />
                  <path d="M5066 2880 L7034 2880" stroke-width="13" />
                  <path d="M5066 3060 L7034 3060" stroke-width="13" />
                  <g id="l1yqfgky" class="layer">
                     <g id="n10e2i6r" class="note">
                        <g class="notehead">
                           <use xlink:href="#E0A2-dxa3bil" x="5257" y="2520" height="720px" width="720px" />
                        </g>
                     </g>
                  </g>
               </g>
               <g id="b9jsf4w" class="barLine">
                  <path d="M7021 540 L7021 1260" stroke-width="27" />
                  <path d="M7021 2340 L7021 3060" stroke-width="27" />
               </g>
            </g>
            <g id="m1lyzuvq" class="measure">
               <g id="s17qdjes" class="staff">
                  <path d="M7034 540 L9002 540" stroke-width="13" />
                  <path d="M7034 720 L9002 720" stroke-width="13" />
                  <path d="M7034 900 L9002 900" stroke-width="13" />
                  <path d="M7034 1080 L9002 1080" stroke-width="13" />
                  <path d="M7034 1260 L9002 1260" stroke-width="13" />
                  <g id="l12ttzu3" class="layer">
                     <g id="n1sh68o5" class="note">
                        <g class="notehead">
                           <use xlink:href="#E0A2-dxa3bil" x="7225" y="1260" height="720px" width="720px" />
                        </g>
                     </g>
                  </g>
               </g>
               <g id="s1ntao1o" class="staff">
                  <path d="M7034 2340 L9002 2340" stroke-width="13" />
                  <path d="M7034 2520 L9002 2520" stroke-width="13" />
                  <path d="M7034 2700 L9002 2700" stroke-width="13" />
                  <path d="M7034 2880 L9002 2880" stroke-width="13" />
                  <path d="M7034 3060 L9002 3060" stroke-width="13" />
                  <g id="lavcqqs" class="layer">
                     <g id="nipy76b" class="note">
                        <g class="notehead">
                           <use xlink:href="#E0A2-dxa3bil" x="7225" y="2340" height="720px" width="720px" />
                        </g>
                     </g>
                  </g>
               </g>
               <g id="b17fnxk5" class="barLine">
                  <path d="M8989 540 L8989 1260" stroke-width="27" />
                  <path d="M8989 2340 L8989 3060" stroke-width="27" />
               </g>
            </g>
         </g>
         <g id="stn133o" class="system">
            <path d="M13 4500 L13 7020" stroke-width="27" />
            <g id="mnxybd2" class="measure">
               <g id="m2i8lw1" class="mNum autogenerated">
                  <text y="4257" text-anchor="middle" font-size="0px">
                     <tspan id="t1x8nt2v" class="text">
                        <tspan font-size="324px">5</tspan>
                     </tspan>
                  </text>
               </g>
               <g id="s1amiajr" class="staff">
                  <path d="M0 4500 L2714 4500" stroke-width="13" />
                  <path d="M0 4680 L2714 4680" stroke-width="13" />
                  <path d="M0 4860 L2714 4860" stroke-width="13" />
                  <path d="M0 5040 L2714 5040" stroke-width="13" />
                  <path d="M0 5220 L2714 5220" stroke-width="13" />
                  <g id="c11ha9cl" class="clef">
                     <use xlink:href="#E050-dxa3bil" x="117" y="5040" height="720px" width="720px" />
                  </g>
                  <g id="krwlo1g" class="keySig" />
                  <g id="l1vyjyxw" class="layer">
                     <g id="ncyn03r" class="note">
                        <g class="notehead">
                           <use xlink:href="#E0A2-dxa3bil" x="870" y="5310" height="720px" width="720px" />
                        </g>
                     </g>
                  </g>
               </g>
               <g id="svr09w" class="staff">
                  <path d="M0 6300 L2714 6300" stroke-width="13" />
                  <path d="M0 6480 L2714 6480" stroke-width="13" />
                  <path d="M0 6660 L2714 6660" stroke-width="13" />
                  <path d="M0 6840 L2714 6840" stroke-width="13" />
                  <path d="M0 7020 L2714 7020" stroke-width="13" />
                  <g id="cn3rusr" class="clef">
                     <use xlink:href="#E05C-dxa3bil" x="117" y="6660" height="720px" width="720px" />
                  </g>
                  <g id="k3zagbw" class="keySig" />
                  <g id="lyneurj" class="layer">
                     <g id="n12dqz8u" class="note">
                        <g class="notehead">
                           <use xlink:href="#E0A2-dxa3bil" x="870" y="6390" height="720px" width="720px" />
                        </g>
                     </g>
                  </g>
               </g>
               <g id="bq9uf5x" class="barLine">
                  <path d="M2701 4500 L2701 5220" stroke-width="27" />
                  <path d="M2701 6300 L2701 7020" stroke-width="27" />
               </g>
            </g>
            <g id="m435ubn" class="measure">
               <g id="sbm9ovp" class="staff">
                  <path d="M2714 4500 L4756 4500" stroke-width="13" />
                  <path d="M2714 4680 L4756 4680" stroke-width="13" />
                  <path d="M2714 4860 L4756 4860" stroke-width="13" />
                  <path d="M2714 5040 L4756 5040" stroke-width="13" />
                  <path d="M2714 5220 L4756 5220" stroke-width="13" />
                  <g id="l1bxk7bq" class="layer">
                     <g id="n1a2nx5g" class="note">
                        <g class="notehead">
                           <use xlink:href="#E0A2-dxa3bil" x="2912" y="5040" height="720px" width="720px" />
                        </g>
                     </g>
                  </g>
               </g>
               <g id="s1o4wn8x" class="staff">
                  <path d="M2714 6300 L4756 6300" stroke-width="13" />
                  <path d="M2714 6480 L4756 6480" stroke-width="13" />
                  <path d="M2714 6660 L4756 6660" stroke-width="13" />
                  <path d="M2714 6840 L4756 6840" stroke-width="13" />
                  <path d="M2714 7020 L4756 7020" stroke-width="13" />
                  <g id="lh5lyge" class="layer">
                     <g id="ncai2mm" class="note">
                        <g class="notehead">
                           <use xlink:href="#E0A2-dxa3bil" x="2912" y="6480" height="720px" width="720px" />
                        </g>
                     </g>
                  </g>
               </g>
               <g id="b1t2db1p" class="barLine">
                  <path d="M4743 4500 L4743 5220" stroke-width="27" />
                  <path d="M4743 6300 L4743 7020" stroke-width="27" />
               </g>
            </g>
            <g id="m3tu2ob" class="measure">
               <g id="sky2yj4" class="staff">
                  <path d="M4756 4500 L6798 4500" stroke-width="13" />
                  <path d="M4756 4680 L6798 4680" stroke-width="13" />
                  <path d="M4756 4860 L6798 4860" stroke-width="13" />
                  <path d="M4756 5040 L6798 5040" stroke-width="13" />
                  <path d="M4756 5220 L6798 5220" stroke-width="13" />
                  <g id="l1wxpe9u" class="layer">
                     <g id="nzfjci3" class="note">
                        <g class="notehead">
                           <use xlink:href="#E0A2-dxa3bil" x="4954" y="4860" height="720px" width="720px" />
                        </g>
                     </g>
                  </g>
               </g>
               <g id="s1on29qd" class="staff">
                  <path d="M4756 6300 L6798 6300" stroke-width="13" />
                  <path d="M4756 6480 L6798 6480" stroke-width="13" />
                  <path d="M4756 6660 L6798 6660" stroke-width="13" />
                  <path d="M4756 6840 L6798 6840" stroke-width="13" />
                  <path d="M4756 7020 L6798 7020" stroke-width="13" />
                  <g id="l1x1dvrq" class="layer">
                     <g id="n621dit" class="note">
                        <g class="notehead">
                           <use xlink:href="#E0A2-dxa3bil" x="4954" y="6570" height="720px" width="720px" />
                        </g>
                     </g>
                  </g>
               </g>
               <g id="b11vo3x9" class="barLine">
                  <path d="M6785 4500 L6785 5220" stroke-width="27" />
                  <path d="M6785 6300 L6785 7020" stroke-width="27" />
               </g>
            </g>
            <g id="m38od3l" class="measure">
               <g id="s1a8hv3t" class="staff">
                  <path d="M6798 4500 L9002 4500" stroke-width="13" />
                  <path d="M6798 4680 L9002 4680" stroke-width="13" />
                  <path d="M6798 4860 L9002 4860" stroke-width="13" />
                  <path d="M6798 5040 L9002 5040" stroke-width="13" />
                  <path d="M6798 5220 L9002 5220" stroke-width="13" />
                  <g id="l1fh52mv" class="layer">
                     <g id="n1qx2cxy" class="note">
                        <g class="notehead">
                           <use xlink:href="#E0A2-dxa3bil" x="6996" y="4770" height="720px" width="720px" />
                        </g>
                     </g>
                  </g>
               </g>
               <g id="slkkbia" class="staff">
                  <path d="M6798 6300 L9002 6300" stroke-width="13" />
                  <path d="M6798 6480 L9002 6480" stroke-width="13" />
                  <path d="M6798 6660 L9002 6660" stroke-width="13" />
                  <path d="M6798 6840 L9002 6840" stroke-width="13" />
                  <path d="M6798 7020 L9002 7020" stroke-width="13" />
                  <g id="lzk898h" class="layer">
                     <g id="n2cm8n9" class="note">
                        <g class="notehead">
                           <use xlink:href="#E0A2-dxa3bil" x="6996" y="6660" height="720px" width="720px" />
                        </g>
                     </g>
                  </g>
               </g>
               <g id="b19pl1b6" class="barLine">
                  <path d="M8827 4500 L8827 5220" stroke-width="27" />
                  <path d="M8957 4500 L8957 5220" stroke-width="90" />
                  <path d="M8827 6300 L8827 7020" stroke-width="27" />
                  <path d="M8957 6300 L8957 7020" stroke-width="90" />
               </g>
            </g>
            <g id="s1ezx4yy" class="systemMilestoneEnd s19i0k3v" />
         </g>
         <g id="phaa4jp" class="pageMilestoneEnd s1m7by78" />
         <g id="p1l64sf8" class="pageMilestoneEnd m15zp8c1" />
      </g>
   </svg>
</svg>
